# xmcd CD database file
#
# Track frame offsets:
#	150
#	15367
#	30762
#	42294
#	54399
#	67004
#	79428
#	91685
#	102873
#	115795
#	129705
#	141653
#	155855
#	172332
#	186128
#	198843
#	209824
#	222337
#	238596
#	249614
#
# Disc length: 3489 seconds
#
# Revision: 0
# Processed by: cddbd v1.5.2PL0 Copyright (c) Steve Scherf et al.
# Submitted via: CDex 1.51
#
DISCID=260d9f14
DTITLE=Grand Jojo - Double Rest Of [CD1)
DYEAR=2013
DGENRE=Ambiance
TTITLE0=Schultz
TTITLE1=Gina Stromboli
TTITLE2=Je Suis Un Don Juan
TTITLE3=El Sombrero
TTITLE4=Concerto Pour Elise
TTITLE5=Carmelita
TTITLE6=Dans Notre Bateau
TTITLE7=Agence Matrimoniale
TTITLE8=Jambalaya
TTITLE9=Le Cow-Boy
TTITLE10=Je Suis Fou
TTITLE11=Le Petit Train
TTITLE12=Square Dance
TTITLE13=Clémentine
TTITLE14=Music-Hall Parade
TTITLE15=Anita
TTITLE16=Oublia Ou
TTITLE17=Poseur Blues
TTITLE18=Western Spaghetti
TTITLE19=Le Bal Tyrolien
EXTD=YEAR: 2013
EXTT0=
EXTT1=
EXTT2=
EXTT3=
EXTT4=
EXTT5=
EXTT6=
EXTT7=
EXTT8=
EXTT9=
EXTT10=
EXTT11=
EXTT12=
EXTT13=
EXTT14=
EXTT15=
EXTT16=
EXTT17=
EXTT18=
EXTT19=
PLAYORDER=
